<?xml version="1.0" encoding="UTF-8"?>
<svg width="512px" height="512px" viewBox="0 0 512 512" version="1.1" xmlns="http://www.w3.org/2000/svg" xmlns:xlink="http://www.w3.org/1999/xlink">
    <!-- Generator: Sketch 59.1 (86144) - https://sketch.com -->
    <title>facebook</title>
    <desc>Created with Sketch.</desc>
    <g id="Page-1" stroke="none" stroke-width="1" fill="none" fill-rule="evenodd">
        <g id="facebook" fill-rule="nonzero">
            <circle id="Background" fill="#00E7FF" cx="256" cy="256" r="256"></circle>
            <path d="M332.3904,116.923733 L292.7616,116.923733 C248.234667,116.923733 219.460267,146.449067 219.460267,192.119467 L219.460267,226.798933 L179.6096,226.798933 C177.959043,226.798927 176.376337,227.455774 175.210819,228.624494 C174.045301,229.793214 173.392799,231.377716 173.39731,233.028267 L173.39731,283.306667 C173.39731,286.737607 176.17866,289.518933 179.6096,289.518933 L219.460267,289.518933 L219.460267,416.324267 C219.460267,419.755207 222.241593,422.536557 225.672533,422.536557 L277.691733,422.536557 C279.342284,422.541068 280.926786,421.888565 282.095506,420.723048 C283.264226,419.55753 283.921073,417.974823 283.921067,416.324267 L283.921067,289.518933 L330.496,289.518933 C332.148124,289.523466 333.734381,288.871506 334.905809,287.706479 C336.077238,286.541451 336.73788,284.958791 336.7424,283.306667 L336.7424,232.977067 C336.733023,229.531167 333.9419,226.740043 330.496,226.730667 L283.904,226.730667 L283.904,197.341867 C283.904,183.210667 287.317333,176.0256 305.664,176.0256 L332.373333,176.0256 C335.803141,176.00687 338.57628,173.226113 338.5856,169.796267 L338.5856,123.136 C338.576224,119.708951 335.800382,116.93311 332.373333,116.923733 L332.3904,116.923733 Z" id="F" fill="#FFFFFF"></path>
        </g>
    </g>
</svg>