<svg xmlns="http://www.w3.org/2000/svg" width="266" height="199" viewBox="0 0 266 199"><defs><linearGradient id="hq8aa" x1="135.06" x2="236.11" y1="144.17" y2="144.17" gradientUnits="userSpaceOnUse"><stop offset="0" stop-color="#fff"/><stop offset=".12" stop-color="#fbfdff"/><stop offset=".25" stop-color="#eff5ff"/><stop offset=".37" stop-color="#dae9ff"/><stop offset=".5" stop-color="#bdd9ff"/><stop offset=".63" stop-color="#98c3ff"/><stop offset=".76" stop-color="#6ba9ff"/><stop offset=".88" stop-color="#378aff"/><stop offset="1" stop-color="#006aff"/></linearGradient><linearGradient id="hq8ab" x1="109.81" x2="159.23" y1="164.48" y2="164.48" gradientUnits="userSpaceOnUse"><stop offset="0" stop-color="#fff"/><stop offset=".12" stop-color="#fbfdff"/><stop offset=".25" stop-color="#eff5ff"/><stop offset=".37" stop-color="#dae9ff"/><stop offset=".5" stop-color="#bdd9ff"/><stop offset=".63" stop-color="#98c3ff"/><stop offset=".76" stop-color="#6ba9ff"/><stop offset=".88" stop-color="#378aff"/><stop offset="1" stop-color="#006aff"/></linearGradient><linearGradient id="hq8ac" x1="28.56" x2="48.34" y1="46.43" y2="46.43" gradientUnits="userSpaceOnUse"><stop offset="0" stop-color="#fff"/><stop offset=".12" stop-color="#fbfdff"/><stop offset=".25" stop-color="#eff5ff"/><stop offset=".37" stop-color="#dae9ff"/><stop offset=".5" stop-color="#bdd9ff"/><stop offset=".63" stop-color="#98c3ff"/><stop offset=".76" stop-color="#6ba9ff"/><stop offset=".88" stop-color="#378aff"/><stop offset="1" stop-color="#006aff"/></linearGradient><linearGradient id="hq8ad" x1="5.51" x2="65.89" y1="75.54" y2="75.54" gradientUnits="userSpaceOnUse"><stop offset="0" stop-color="#fff"/><stop offset=".26" stop-color="#fdfeff"/><stop offset=".4" stop-color="#f5f9ff"/><stop offset=".51" stop-color="#e7f1ff"/><stop offset=".6" stop-color="#d4e6ff"/><stop offset=".69" stop-color="#bbd8ff"/><stop offset=".76" stop-color="#9dc6ff"/><stop offset=".83" stop-color="#78b0ff"/><stop offset=".9" stop-color="#4e98ff"/><stop offset=".96" stop-color="#207dff"/><stop offset="1" stop-color="#006aff"/></linearGradient><linearGradient id="hq8ae" x1="85.67" x2="146.03" y1="121.09" y2="121.09" gradientUnits="userSpaceOnUse"><stop offset="0" stop-color="#311842"/><stop offset=".46" stop-color="#190c4b"/><stop offset="1" stop-color="#000054"/></linearGradient><linearGradient id="hq8af" x1="47.22" x2="101.02" y1="87.62" y2="87.62" gradientUnits="userSpaceOnUse"><stop offset="0" stop-color="#2058d6"/><stop offset="1" stop-color="#5889fc"/></linearGradient><linearGradient id="hq8ag" x1="72.02" x2="77.81" y1="142.42" y2="64.11" gradientUnits="userSpaceOnUse"><stop offset="0" stop-color="#fff"/><stop offset=".26" stop-color="#fdfeff"/><stop offset=".4" stop-color="#f5f9ff"/><stop offset=".51" stop-color="#e7f1ff"/><stop offset=".6" stop-color="#d4e6ff"/><stop offset=".69" stop-color="#bbd8ff"/><stop offset=".76" stop-color="#9dc6ff"/><stop offset=".83" stop-color="#78b0ff"/><stop offset=".9" stop-color="#4e98ff"/><stop offset=".96" stop-color="#207dff"/><stop offset="1" stop-color="#006aff"/></linearGradient><linearGradient id="hq8ah" x1="143.86" x2="177.92" y1="158.44" y2="158.44" gradientUnits="userSpaceOnUse"><stop offset="0" stop-color="#fff"/><stop offset=".12" stop-color="#fbfdff"/><stop offset=".25" stop-color="#eff5ff"/><stop offset=".37" stop-color="#dae9ff"/><stop offset=".5" stop-color="#bdd9ff"/><stop offset=".63" stop-color="#98c3ff"/><stop offset=".76" stop-color="#6ba9ff"/><stop offset=".88" stop-color="#378aff"/><stop offset="1" stop-color="#006aff"/></linearGradient><linearGradient id="hq8ai" x1="19.78" x2="165.81" y1="42.61" y2="42.61" gradientUnits="userSpaceOnUse"><stop offset="0" stop-color="#311842"/><stop offset=".46" stop-color="#190c4b"/><stop offset="1" stop-color="#000054"/></linearGradient><linearGradient id="hq8aj" x1="28.55" x2="165.79" y1="34.88" y2="34.88" gradientUnits="userSpaceOnUse"><stop offset="0" stop-color="#311842"/><stop offset=".49" stop-color="#170ba7"/><stop offset=".84" stop-color="#0603e6"/><stop offset="1" stop-color="#00f"/></linearGradient></defs><g><g><g><path fill="url(#hq8aa)" d="M135.07 135.206s24.74 18.89 31.32 21.557c6.601 2.668 8.942 2.19 17.189 4.36 8.246 2.19 25.667 4.836 35.327 8.24 9.66 3.384 17.189 7.743 17.189 7.743s-4.008-7.027-3.29-9.933c.716-2.906.716-4.597.716-4.597s-4.47-.478-10.608-4.598c-6.116-4.12-17.442-13.815-31.088-16.721-13.667-2.906-19.087-1.93-19.087-1.93l-27.566-28.107z"/></g><g><path fill="#18c2db" d="M233.643 161.606l5.394-2.19s4.135-2.58 8.1.65c3.966 3.23 6.822 10.168 8.42 11.794 1.578 1.605 6.183 2.58 8.741 8.564 2.537 5.984 1.28 11.946-.32 15.177-1.577 3.23-3.816 3.707-4.753 3.382-.96-.325-10.169-12.098-12.855-14.374-2.707-2.255-10.083-8.477-10.083-8.477s-4.37-6.223-3.326-9.93c1.002-3.708.682-4.596.682-4.596z"/></g><g><path d="M255.454 171.868c-1.598-1.606-4.49-8.569-8.527-11.8-4.015-3.233-8.202-.652-8.202-.652l-.864.347c-.906 1.193-2.007 3.167-1.726 5.467.474 3.71 3.69 7.44 7.403 10.976 3.692 3.558 8.354 8.243 9.973 11.15 1.014 1.844 3 6.985 4.77 10.868.41.434.734.716.864.759.971.325 3.216-.152 4.813-3.384 1.598-3.232 2.893-9.198.324-15.185-2.569-5.965-7.231-6.941-8.828-8.546z"/></g><g><path fill="url(#hq8ab)" d="M133.418 137.58l11.328 17.766s14.625 25.262 14.477 27.99c-.148 2.729-5.664 10.076-10.694 7.52-5.03-2.557-8.496-7.842-11.962-11.515-3.466-3.673-26.757-26.08-26.757-26.08z"/></g><g><path fill="#18c2db" d="M167.531 126.597s-2.99-4.433-3.584-5.51c-.594-1.077-3.203-6.713.593-9.796 3.797-3.06 8.888-2.238 12.43-1.773 3.564.464 4.985 2.005 6.045 1.414 1.06-.59 2.843-3.546 6.152-4.01 3.309-.465 11.263.823 15.632 4.37 4.39 3.546-.721 7.895-6.978 9.204-6.279 1.288-11.963 5.531-14.445 7.304-2.482 1.774-4.942 3.188-4.942 3.188s-.997-4.243-3.712-5.067c-2.715-.823-7.19.676-7.19.676z"/></g><g><path d="M204.811 111.258c-4.392-3.52-12.327-4.798-15.637-4.337-3.31.46-5.092 3.394-6.153 3.98-1.06.587-2.482-.942-6.047-1.403-3.564-.461-8.656-1.278-12.433 1.76-3.798 3.038-1.188 8.653-.594 9.721.064.105.148.252.233.398 1.91.399 5.58 1.006 8.402.776 4.032-.356 6.408-2.347 11.14-2.116 4.37.21 18.331-.063 22.68-5.448.192-1.11-.275-2.263-1.59-3.331z"/></g><g><path fill="url(#hq8ac)" d="M28.55 37.65s.453 4.6 1.383 6.625c.929 2.003 3.921 5.326 5.666 7.593 1.746 2.245 1.655 4.116 4.307 3.038 2.652-1.079 8.41-5.15 8.41-5.15z"/></g><g><path fill="url(#hq8ad)" d="M65.857 58.555s-3.41 16.717-5.536 23.968c-2.126 7.25-5.663 14.221-8.084 14.393-2.42.173-8.104-.215-15.472-6.562C29.418 84.008 20.788 78.93 18.851 78.5c-1.958-.452-6.273-.41-8.252-3.292-1.979-2.883-5.431-7.165-5.073-8.412.358-1.248 5.094-3.873 6.504-3.593 1.41.28 7.305 2.99 9.052 5.658 1.748 2.668 3.095 5.207 7.536 7.767 4.442 2.582 8.779 2.99 13.515 4.583l4.737 1.592s3.2-19.062 5.41-22.505c2.189-3.42 4.694-6.906 9.493-6.046 4.8.883 4.084 4.303 4.084 4.303z"/></g><g><path fill="url(#hq8ae)" d="M85.66 115.218s1.637 8.664 6.569 18.299c4.931 9.634 7.492 16.121 9.15 19.268 1.637 3.125 4.218 2.65 9.15 1.444 4.931-1.207 5.624-2.651 9.15-3.858 3.525-1.207 12.424-4.332 14.774-10.346 2.35-6.013 1.868-9.138 4.449-11.315 2.581-2.177 4.68-6.509 5.624-12.026.945-5.54 1.868-10.841 1.406-14.44-.461-3.622-3.756-6.51-3.756-6.51s-4.45 1.207-11.71-2.888c-7.262-4.095-11.71-3.858-17.104-4.806-5.394-.97-10.787-.97-10.787-.97"/></g><g><path fill="url(#hq8af)" d="M49.081 59.61s-2.719 12.443-1.584 16.697c1.135 4.253 3.19 12.93 7.493 14.178 4.303 1.249 8.777.148 8.777.148s9.399 9.608 13.38 15.596c3.983 5.99 6.701 9.29 6.701 9.29s5.267 1.418 10.512-6.771c5.266-8.19 8.456-20.633 5.588-23.003-2.87-2.37-3.833-2.37-5.417-3.936-1.584-1.566-25.668-20.337-25.668-20.337z"/></g><g><path fill="url(#hq8ag)" d="M58.912 65.172s18.023 4.786 25.808 7.576c7.786 2.79 15.166 7.147 15.208 9.894.043 2.725-.704 9.078-8.041 16.954-7.359 7.876-13.374 17.255-13.97 19.4-.598 2.168-.811 7.019-4.053 9.057-3.264 2.06-8.255 3.305-9.599 2.833-1.343-.493-3.796-3.562-3.412-5.129.384-1.567 3.69-8.005 6.697-9.808 3.008-1.802 5.844-3.154 8.916-8.005 3.071-4.828 3.775-9.679 5.801-14.894l2.027-5.215s-20.605-4.7-24.21-7.34c-3.604-2.66-7.251-5.665-6.035-10.988 1.151-5.322 4.863-4.335 4.863-4.335z"/></g><g><path fill="url(#hq8ah)" d="M149.634 190.447s-6.219-9.135-5.76-18.766c.46-9.63 1.544-15.405 4.508-19.886 2.942-4.482 10.413-11.549 14.44-17.495 4.05-5.946 4.341-8.015 4.341-8.015s5.28-1.767 8.076 0c2.797 1.767 2.65 4.482 2.65 4.482s-11.039 26.802-13.355 34.817c-2.337 8.014-2.65 15.878-3.423 18.442-.75 2.564-4.632 9.954-11.477 6.42z"/></g><g><path fill="#fff" d="M20.864 78.085s-2.564-.616-4.805-.956c-2.241-.319-4.008-.956-5.624-1.573-1.595-.637-2.564 3.486-3.857 3.804-1.293.32-.97-2.699-.646-3.804.323-1.105 2.887-3.953 4.481-6.163 1.595-2.21-.797-4.42-.797-4.42S.954 61.167.156 59.595c-.796-1.573 1.445-1.424 6.745.467 5.3 1.892 8.985 3.804 8.985 3.804s3.276 1.68 4.676 4.08"/></g><g><path fill="url(#hq8ai)" d="M27.935 5.207S37.33-3.695 51.75 2.53c12.056 5.205 12.205 12.663 19.703 17.847 5.155 3.569 20.534 11.812 36.297 8.562 15.741-3.23 31.334 1.933 42.9 16.55 11.588 14.617 15.166 22.967 15.166 22.967s-19-2.273-31.78 8.116c-12.781 10.39-41.154 10.134-56.98 4.143-15.806-5.991-25.988-17.167-28.927-22.096-2.94-4.908-5.027-9.305-10.097-11.409-5.07-2.103-18.617-12.854-18.255-22.69.405-9.816 2.365-14.426 8.158-19.313z"/></g><g opacity=".3"><path fill="url(#hq8aj)" d="M107.994 28.976c-15.69 3.233-30.976-5-36.128-8.573-7.463-5.19-7.59-12.657-19.612-17.87-14.248-6.19-23.577 2.554-23.704 2.681C42.904-.04 49.476 4.768 56.558 13.66 68.495 28.636 80.41 43.016 97.902 41.888c13.208-.85 28.559-4.275 39.223 3 10.665 7.275 14.502 13.253 14.502 13.253s-15.35-8.126-31.972-7.276c-16.622.851-32.397-1.276-43.485-8.126C65.08 35.89 57.85 24.785 57.85 24.785s4.792 30.399 44.333 31.228c41.344.851 37.507 3.85 47.875 13.487 8.523-1.787 15.753-.936 15.753-.936s-3.562-8.36-15.096-22.995c-11.555-14.657-27.054-19.848-42.722-16.593z"/></g></g></g></svg>