<?xml version="1.0" encoding="UTF-8"?>
<svg width="512px" height="512px" viewBox="0 0 512 512" version="1.1" xmlns="http://www.w3.org/2000/svg" xmlns:xlink="http://www.w3.org/1999/xlink">
    <!-- Generator: Sketch 59.1 (86144) - https://sketch.com -->
    <title>linkedin</title>
    <desc>Created with Sketch.</desc>
    <g id="Page-1" stroke="none" stroke-width="1" fill="none" fill-rule="evenodd">
        <g id="linkedin" fill-rule="nonzero">
            <circle id="Background" fill="#00E7FF" cx="256" cy="256" r="256"></circle>
            <g id="Linkdin" transform="translate(114.346667, 102.400000)" fill="#FFFFFF">
                <path d="M220.16,283.204267 C220.16,282.4704 220.16,220.0576 220.16,189.44 C220.388961,182.167147 219.555287,174.899809 217.685333,167.867733 C214.272,156.654933 206.592,150.613333 194.884267,149.930667 C189.509282,149.485903 184.097769,149.94744 178.875733,151.296 C168.8576,154.094933 163.054933,160.955733 160.238933,170.666667 C158.151529,178.674037 157.209186,186.936776 157.44,195.208533 L157.44,283.1872 L94.6858667,283.1872 L94.6858667,95.1125333 L157.252267,95.1125333 L157.252267,122.2656 C157.910778,122.185244 158.489576,121.790898 158.805333,121.207467 C162.602471,113.996283 168.229215,107.910454 175.121067,103.560533 C182.161118,99.2953303 190.05891,96.6433044 198.2464,95.7952 C211.143516,94.0972753 224.24857,94.9496838 236.817067,98.304 C256.290133,103.662933 268.8512,116.3776 275.592533,135.150933 C278.712187,144.252356 280.729076,153.695066 281.6,163.2768 C282.639632,174.623316 283.066919,186.017622 282.88,197.410133 L282.88,283.170133 L220.16,283.204267 Z" id="Path"></path>
                <polygon id="Path" points="63.1466667 283.306667 0.512 283.306667 0.512 95.1466667 63.1466667 95.1466667"></polygon>
                <path d="M63.1466852,32.2389333 C63.1604182,44.945625 55.5112007,56.4068612 43.7717227,61.2694593 C32.0322447,66.1320574 18.519134,63.4364493 9.54393913,54.4416686 C0.568744228,45.4468879 -2.09740117,31.9279333 2.79077549,20.1990829 C7.67895216,8.47023247 19.1568351,0.846016688 31.8634667,0.887298499 C49.1361619,0.96248484 63.1093003,14.9661156 63.1466852,32.2389333 L63.1466852,32.2389333 Z" id="Path"></path>
            </g>
        </g>
    </g>
</svg>